<?xml version="1.0" encoding="iso-8859-1"?>
<!-- Uploaded to: SVG Repo, www.svgrepo.com, Generator: SVG Repo Mixer Tools -->
<svg version="1.1" id="Layer_1" xmlns="http://www.w3.org/2000/svg" xmlns:xlink="http://www.w3.org/1999/xlink" 
	 viewBox="0 0 512.002 512.002" xml:space="preserve">
<path style="fill:#E6D0CF;" d="M191.562,512.002H320.44c37.982-34.917,63.503-99.745,63.503-173.962
	c0-84.327-32.948-145.587-79.686-175.565h-96.514c-46.738,29.979-79.686,91.238-79.686,175.565
	C128.06,412.257,153.582,477.085,191.562,512.002z"/>
<path style="opacity:0.1;enable-background:new    ;" d="M169.743,338.04c0-84.327,32.948-145.587,79.686-175.566h-41.683
	c-46.738,29.979-79.686,91.238-79.686,175.566c0,74.217,25.522,139.045,63.503,173.962h41.683
	C195.265,477.085,169.743,412.257,169.743,338.04z"/>
<rect x="242.511" y="33.505" style="fill:#E6D0CF;" width="26.987" height="74.495"/>
<polygon style="fill:#7B9950;" points="207.198,162.475 222.759,85.639 289.246,85.639 304.806,162.475 256.002,195.439 "/>
<polygon style="opacity:0.1;enable-background:new    ;" points="248.719,85.639 222.759,85.639 207.198,162.474 230.035,177.9 "/>
<g>
	<path style="fill:#7B9950;" d="M256.002,251.533c-43.414,19.136-74.666,80.935-52.019,126.11
		c8.023,16.005,22.854,21.154,38.521,19.272l-1.207,35.045c-0.068,0.708-0.077,1.498,0,2.229
		c0.724,6.904,7.894,12.001,16.015,11.386c8.121-0.616,14.117-6.711,13.393-13.615l-1.207-35.045
		c15.667,1.881,30.498-3.267,38.522-19.272C330.668,332.468,299.416,270.669,256.002,251.533z"/>
	<path style="fill:#7B9950;" d="M348.071,67.008c-9.332,0-17.92-6.013-20.853-15.273c-0.013-0.03-0.028-0.061-0.044-0.093h-89.47
		c-18.711,0-31.275-10.026-36.35-18.613c-6.15-10.408-2.699-23.832,7.71-29.982c9.362-5.532,21.161-3.295,27.916,4.783
		c0.191,0.018,0.432,0.032,0.724,0.032h90.017c22.461,0,37.229,16.258,41.446,31.365c3.25,11.644-3.555,23.72-15.199,26.969
		C352.001,66.747,350.019,67.008,348.071,67.008z"/>
</g>
</svg>